<svg xmlns="http://www.w3.org/2000/svg" viewBox="-164.66 -202.748 415.81698 511.99997" height="512" width="415.817"><path d="M-29.036-33.165l-22.71-41.463c-67.028 34.508-112.9 104.32-112.914 184.904.014 69.95 34.583 131.77 87.527 169.449.678-8.751 3.082-18.92 7.959-30.694a152.652 152.652 0 0 1 3.636-8.065c-19.729-7.586-37.156-25.389-46.531-48.956-8.046-20.233-8.854-40.815-3.605-57.997a162.514 162.514 0 0 1-1.798-23.741c.111-62.727 36.046-116.957 88.436-143.437zm169.163-40.501l-22.6 41.52c51.303 26.839 86.325 80.485 86.438 142.422a161.678 161.678 0 0 1-3.952 35.172c1.704 4.113 3.089 8.465 4.009 13.084 3.296 16.643 1.052 35.318-6.328 52.585-9.943 23.267-27.229 40.37-46.872 47.558 2.948 10.755 3.681 19.887 2.995 27.633 58.458-36.788 97.33-101.847 97.34-176.031-.015-79.837-45.028-149.109-111.03-183.943z" fill="#CD7229"/><path d="M150.559-161.487c-7.333 0-13.286 5.951-13.286 13.293 0 2.11.531 4.082 1.408 5.85l-60.194 29.642-27.145-58.399c5.671-2.644 9.633-8.357 9.633-15.028 0-9.178-7.436-16.619-16.611-16.619-9.162 0-16.605 7.441-16.605 16.619 0 6.667 3.953 12.38 9.62 15.023l-27.142 58.404-60.193-29.646c.875-1.775 1.409-3.74 1.409-5.85 0-7.343-5.951-13.293-13.286-13.293-7.338 0-13.288 5.95-13.288 13.293 0 7.34 5.95 13.295 13.288 13.295 2.312 0 4.46-.647 6.359-1.692l51.439 93.898c.582-.192 25.147-6.835 48.458-6.835 16.661 0 33.468 1.986 48.637 6.908l51.153-93.971c1.896 1.045 4.042 1.688 6.347 1.688 7.343 0 13.3-5.951 13.3-13.295-.002-7.348-5.959-13.285-13.301-13.285z" fill="#829942"/><path d="M14.275 149.462c18.023-2.878 28.891-28.638 24.276-57.533-4.042-25.365-18.676-44.715-34.382-47.123C1.165 33.095-3.725 24.779-7.532 25.509c-3.871.739-5.307 10.577-3.65 22.844-12.58 8.488-19.326 30.149-15.516 53.988 4.611 28.906 22.955 49.99 40.973 47.121zm151.466-1.986c4.816-12.3 5.821-23.098 2.028-24.731-3.737-1.615-10.789 6.319-16.413 18.056-15.248-1.249-32.656 11.905-41.566 32.755-10.356 24.215-5.314 49.58 11.258 56.674 16.563 7.084 38.394-6.808 48.754-31.022 8.643-20.231 6.521-41.225-4.061-51.732zm-90.729 4.319c17.54 5.023 38.29-13.718 46.337-41.857 6.507-22.723 2.732-44.613-8.206-54.846 4.398-11.868 5.173-22.079 1.492-23.647-3.699-1.58-10.601 6.178-16.135 17.71-16.127-.125-33.469 17.46-40.67 42.608-8.057 28.137-.357 55.019 17.182 60.032zm-31.898 29.004C.353 178.855-64.729 275.621-42.418 297.931c22.309 22.309 63.216 3.718 85.532 0 22.312-3.719 44.677 29.802 76.225-3.719 20.445-21.717-35.322-111.554-76.225-113.413zm-79.053 32.224c16.743-6.666 22.421-31.914 12.678-56.383-9.274-23.285-29.151-37.436-45.477-33.013-4.812-9.127-10.27-14.91-13.514-13.629-3.61 1.437-3.251 11.15.547 22.708-8.129 11.07-9.464 29.783-2.188 48.073 9.742 24.47 31.215 38.911 47.954 32.244z" fill="#A9A48D"/></svg>