<svg xmlns="http://www.w3.org/2000/svg" width="512" height="505.35"><g fill="#007ebe"><path d="M256.003 0s70.746 44.944 0 94.523c-70.759-49.579 0-94.523 0-94.523zM176.676 79.843s78.313-12.411 67.947 61.482c-81.64 9.381-67.947-61.482-67.947-61.482z"/><path d="M172.091 149.577s83.531-13.216 72.467 65.605c-87.07 10.005-72.467-65.605-72.467-65.605z"/><path d="M162.904 219.272s94.01-14.859 81.521 73.785c-97.949 11.277-81.521-73.785-81.521-73.785z"/><g><path d="M267.447 215.182c-11.092-78.821 72.476-65.605 72.476-65.605s14.609 75.61-72.476 65.605z"/><path d="M335.287 79.843s13.727 70.863-67.9 61.482c-10.408-73.893 67.9-61.482 67.9-61.482zM267.566 293.057c-12.443-88.643 81.528-73.784 81.528-73.784s16.427 85.061-81.528 73.784z"/></g></g><path d="M458.616 156.048v-50.836c-33.428 0-61.593 1.85-85.271 4.805v26.505c16.18-2.164 34.885-3.806 56.5-4.582v258.676c-42.595 1.282-111.26 8.139-159.461 36.474v-99.658c0-7.944-6.438-14.39-14.386-14.39-7.945 0-14.385 6.444-14.385 14.39v99.658c-48.241-28.335-116.87-35.19-159.458-36.474V131.942c21.611.776 40.315 2.417 56.493 4.579v-26.502c-23.678-2.955-51.838-4.805-85.269-4.805v50.836H0v327.988h220.64s2.989 21.312 35.356 21.312c32.376 0 35.357-21.312 35.357-21.312H512v-327.99zM28.776 440.837V182.285H53.38v234.508s4.348-.197 11.869-.197c27.084 0 94.89 2.368 144.597 24.241zm454.445 0H302.145c49.717-21.873 117.521-24.241 144.601-24.241 7.523 0 11.872.197 11.872.197V182.285h24.604v258.552z" fill="#eee"/><linearGradient id="a" gradientUnits="userSpaceOnUse" x1="196.961" y1="396.06" x2="196.961" y2="486.82" gradientTransform="matrix(1 0 0 -1 59.04 488.688)"><stop offset="0" stop-color="#007ebe"/><stop offset="1" stop-color="#007ebe"/></linearGradient><path d="M256.003 92.626c-20.188-14.378-30.244-29.663-29.89-45.446.531-23.898 25.025-41.962 29.89-45.313 4.858 3.351 29.351 21.415 29.886 45.313.352 15.783-9.701 31.068-29.886 45.446z" fill="url(#a)"/><linearGradient id="b" gradientUnits="userSpaceOnUse" x1="151.658" y1="348.055" x2="151.658" y2="408.08" gradientTransform="matrix(1 0 0 -1 59.04 488.688)"><stop offset="0" stop-color="#007ebe"/><stop offset="1" stop-color="#007ebe"/></linearGradient><path d="M230.495 140.632c-19.357 0-33.695-5.478-42.611-16.285-12.907-15.64-10.604-37.968-9.86-43.122 1.825-.222 5.782-.618 10.852-.618 13.999 0 33.147 2.832 44.877 16.323 8.691 9.995 11.883 24.453 9.498 42.988-4.455.474-8.741.714-12.756.714z" fill="url(#b)"/><linearGradient id="c" gradientUnits="userSpaceOnUse" x1="149.339" y1="274.143" x2="149.339" y2="338.394" gradientTransform="matrix(1 0 0 -1 59.04 488.688)"><stop offset="0" stop-color="#007ebe"/><stop offset="1" stop-color="#007ebe"/></linearGradient><path d="M229.496 214.545c-20.669 0-35.984-5.849-45.517-17.392-13.858-16.777-11.321-40.826-10.542-46.194 1.912-.235 6.166-.667 11.635-.667 14.96 0 35.423 3.029 47.969 17.457 9.303 10.701 12.716 26.185 10.144 46.027-4.779.511-9.379.769-13.689.769z" fill="url(#c)"/><linearGradient id="d" gradientUnits="userSpaceOnUse" x1="144.687" y1="196.149" x2="144.687" y2="268.801" gradientTransform="matrix(1 0 0 -1 59.04 488.688)"><stop offset="0" stop-color="#007ebe"/><stop offset="1" stop-color="#007ebe"/></linearGradient><path d="M227.449 292.539c-23.309 0-40.581-6.611-51.337-19.648-15.769-19.104-12.72-46.477-11.863-52.239 2.082-.259 6.953-.766 13.261-.766 16.881 0 39.978 3.421 54.134 19.711 10.521 12.105 14.358 29.614 11.409 52.055-5.449.587-10.694.887-15.604.887z" fill="url(#d)"/><linearGradient id="e" gradientUnits="userSpaceOnUse" x1="244.587" y1="274.143" x2="244.587" y2="338.397" gradientTransform="matrix(1 0 0 -1 59.04 488.688)"><stop offset="0" stop-color="#007ebe"/><stop offset="1" stop-color="#007ebe"/></linearGradient><path d="M282.511 214.545c-4.311 0-8.911-.259-13.69-.77-2.578-19.839.828-35.316 10.129-46.019 12.546-14.436 33.021-17.465 47.986-17.465 5.486 0 9.731.429 11.643.667.773 5.365 3.313 29.417-10.551 46.194-9.535 11.544-24.848 17.393-45.517 17.393z" fill="url(#e)"/><linearGradient id="f" gradientUnits="userSpaceOnUse" x1="242.244" y1="348.055" x2="242.244" y2="408.08" gradientTransform="matrix(1 0 0 -1 59.04 488.688)"><stop offset="0" stop-color="#007ebe"/><stop offset="1" stop-color="#007ebe"/></linearGradient><path d="M281.514 140.632c-4.015 0-8.303-.24-12.754-.713-2.398-18.537.788-32.995 9.475-42.992 11.722-13.488 30.863-16.32 44.854-16.32 5.069 0 9.026.396 10.853.618.738 5.16 3.039 27.529-9.863 43.146-8.912 10.791-23.231 16.261-42.565 16.261z" fill="url(#f)"/><linearGradient id="g" gradientUnits="userSpaceOnUse" x1="249.229" y1="196.149" x2="249.229" y2="268.803" gradientTransform="matrix(1 0 0 -1 59.04 488.688)"><stop offset="0" stop-color="#007ebe"/><stop offset="1" stop-color="#007ebe"/></linearGradient><path d="M284.545 292.539c-4.908 0-10.154-.3-15.602-.889-2.939-22.44.904-39.949 11.434-52.059 14.159-16.29 37.248-19.708 54.119-19.708 6.305 0 11.174.507 13.254.766.852 5.767 3.881 33.174-11.885 52.259-10.76 13.026-28.024 19.631-51.32 19.631z" fill="url(#g)"/><linearGradient id="h" gradientUnits="userSpaceOnUse" x1="196.958" y1="-15.111" x2="196.958" y2="381.923" gradientTransform="matrix(1 0 0 -1 59.04 488.688)"><stop offset="0" stop-color="#eee"/><stop offset="1" stop-color="#eee"/></linearGradient><path d="M255.996 503.799c-30.529 0-33.702-19.169-33.822-19.982l-.195-1.322-1.339-.007H1.55v-324.89h53.381v-50.833c29.821.052 57.45 1.606 82.168 4.623v23.366c-16.881-2.191-35.336-3.658-54.885-4.361l-1.606-.057v261.786l1.504.047c38.175 1.148 109.559 7.387 158.716 36.263l2.334 1.369V327.434c0-7.076 5.761-12.841 12.837-12.841 7.08 0 12.836 5.765 12.836 12.841V429.8l2.338-1.369c49.113-28.876 120.523-35.113 158.72-36.263l1.504-.047V130.335l-1.606.057c-19.549.703-38.01 2.172-54.892 4.365v-23.37c24.72-3.017 52.351-4.571 82.168-4.623v50.833h53.381v324.89h-220.44l-.188 1.336c-.119.807-3.288 19.976-33.824 19.976zm190.748-88.752c-27.014 0-95.237 2.374-145.223 24.371l.621 2.969H484.77V180.735h-27.704V415.19c-1.92-.06-5.483-.143-10.322-.143zm-419.515 27.34h182.618l.625-2.969c-49.979-21.997-118.208-24.371-145.222-24.371-4.837 0-8.399.083-10.319.145V180.735H27.229z" fill="url(#h)"/></svg>