<svg xmlns="http://www.w3.org/2000/svg" height="493.511" width="512" viewBox="0 0 511.99979 493.51101"><g fill="#d03c3c"><path d="M259.686 175.09l-.08-.003c.026.005.052.018.075.021 0-.005.004-.011.005-.018zM386.078 247.829c.126.142.222.263.31.374-.244-.328-.266-.346-.31-.374zM261.683 175.193c-.125-.007-.251-.017-.377-.025.094.038.19.071.265.073.06 0 .09-.022.112-.048zM169.584 250.242c-.945-.981-3.224-1.646-5.34-.045 1.337 1.598 1.89 2.26-.08 5.531a.89.89 0 0 0 .32.165l.242-.055c.465-.807.07-2.052 1.254-2.496-.513.994-.734 1.593-.769 2.736-.038 1.23-.038 1.23-.447 2.58.562.182 1.004-.394 1.56-.246.898-1.994 1.949-3.961 3.561-4.822-.023.184-.054.433-.036.619.108 1.156 1.293 1.438 2.214.157.067-.091.146-.222.206-.317-.337-.424-.406-.673-.492-1.763-.088-1.124-.249-1.92-1.534-1.911-.712 1.356-.712 1.356-1.016 1.433.227-.656-.117-.727-1.012-.74-.857-.014-1.035-.174-.824-.738.724-.11 1.669.807 2.193-.088z"/><path d="M351.415 279.472c1.954.336 3.416-1.487 5.355-1.222 2.044-4.78 2.669-5.79 10.205-9.323 3.456-1.62 3.991-2.289 5.578-4.276.235.23.235.23 2.72.68.295.99-.335 2.094.374 3.032.68.899 1.808 1.295 2.47 2.212.58.81.45 1.216.31 1.647-.383-1.316-.383-1.316-.763-1.575.667 1.53-.011 3.327.958 4.797.468-.222.332-.882.8-1.102 1.105 1.324 1.474 1.769 2.906 2.045 1.59.309 3.009-.714 4.575-.6 3.529 4.812 6.39 3.317 7.78 2-2.262-4.995-2.262-4.995-2.145-5.75.009-.049.864-4.61 3.34-.886.879-.252 1.779-.338 2.68-.4a159.983 159.983 0 0 0-4.937-10.295l.003.09c0 1.512-.946 2.238-2.753.697a.885.885 0 0 1 .245-.458c.52-.484 1.356-.505 2.405-.518a159.798 159.798 0 0 0-4.864-8.606 1.525 1.525 0 0 1-.526.196c-.76-.62-.727-.806-.65-1.254.151-.018.344-.013.513-.001-.256-.413-.513-.826-.773-1.237l-.654-.903c.22.327.283.557.366.928l-.242.272c-.138-.09-2.115-3.486-2.128-3.515-.292-.614-.526-1.094-1.028-1.07-.76.035-.55 1.157-1.321 1.184-.098.003-.224-.02-.322-.03.375.691 1.287 1.02 1.308 1.948-.41.137-.824-.032-1.24.026-.018.085-.04.196-.06.279 1.609 1.985 4.053 3.033 5.644 5.035.032.036.678.872-.682 1.192-.037.08-.085.182-.125.26.476.34.74.527.885 1.454-.092.011-.213.028-.303.038-.08-.08-.187-.183-.265-.262.44.795 1.155 1.379 1.637 2.141-.058.086-.132.2-.188.282-1.058-.133-1.058-.133-1.071-.133-.101.153-.21.377-.26.552-.852-1.523-2.437-2.567-2.855-4.372-1.561-.89-1.646-.951-2.675-1.686-2.445-1.748-3.194-4.92-5.614-6.686-2.725-1.987-6.313-2.024-9.04-4.008-.566-.41-1.243-1.06-1.773-1.515a1.66 1.66 0 0 1-.265.54c-.938-.107-1.489-.901-2.271-1.286-.284 1.187.118 1.795 1.868 4.177 3.166.14 4.014 4.547 7.51 4.08.229-.142.302-.241.494-.506 1.768 2.082 4.93 2.421 6.295 5.014-1.626-1.076-1.795-1.083-2.413-1.106-.82 2.274 2.078 2.723 2.852 4.263 0 0-.005 0-.016.008-.824 1.355.67 2.91-.362 4.245.403 1.316 1.668 2.276 1.568 3.798-1.747-.939-4.056-.736-5.337-2.62.849-.91 2.283-.979 2.989-2.091.76-1.203.025-2.654.018-2.665-2.954-3.49-4.668-4.036-7.784-5.029-4.31-1.374-5.222-2.357-8.244-5.614-.885.101-1.747-.641-2.649-.081.2 1.749.28 2.471-.737 3.631-1.296 1.479-3.38 1.55-4.847 2.725.595 1.235 1.62 2.19 2.248 3.405-2.679 5.483-3.16 6.469-1.732 9.15 1.667 3.127 2.587 6.044-3.073 10.057a69.573 69.573 0 0 0-2.642 1.987c.78 1.331 1.395 2.383 2.73 2.614zM325.452 194.058c1.397 1.462 1.59 3.634 3 5.086 2.697 2.78 3.01 2.84 5.059 3.227 1.808.341 3.94 1.417 3.812 4.593 1.742 1.491 3.26 3.237 5.151 4.556.033.918-.142 1.321-.754 1.724-.08.04-.186.086-.267.12.428.815 1.387 1.256 1.581 2.237-.469-.365-.51-.358-.752-.328-.106.265.04.586-.197.817-.73-.375-1.05-1.285-1.935-1.446 1.258 1.358 1.774 3.143 2.692 4.694.748-.558.26-1.548.768-2.19 2.444 1.609 2.889 1.038 2.95-.85.055-1.662.21-2.534 2.708-1.155-.479-1.074-.437-2.333-1.173-3.316-1.23-1.635-3.123-2.556-4.414-4.116-.269-.325-.643-.752-.832-1.127-.042-.086.018-.268.11-.302 1.055-.384 1.731.617 2.651.723.037-.04.081-.094.118-.134a1.898 1.898 0 0 0-.11-.35c-.898-.733-1.803-1.46-2.716-2.178-.539-.19-.721-.144-.784-.074-.282.343.122.702-.025 1.047-.202.48-1.291-.124-2.054-1.581-.257-.49-.73-1.406-.096-2.534l.02-.037c-.517-.341-1.03-.686-1.551-1.023-.13.76-.265 1.542-.8 1.96-.805.628-3.235.215-3.132-.532.226-.141.549-.118.691-.398-.422-.38-.422-.38-7.92-5.702.097-.012.226-.045.312-.086.039-.12-.727-1.296-1.468-2.397a162.148 162.148 0 0 0-4.15-2.102c.005.034-.01.047-.002.085.43 1.871 2.428 1.959 3.509 3.09zM156.186 259.554c1.35-5.24 3.262-6.78 7.08-9.852l.27-.219c-.226-.482-.687-.447-1.615-.263-.923.182-1.278.222-1.838.112a1.607 1.607 0 0 1-.555-.248c-.991 1.652-.991 1.652-.995 1.684.15.15.15.15.277.38-2.309 1.592-5.392 6.674-5.264 9.495 1.245.517 1.42-1.658 2.64-1.09z"/><path d="M389.205 375.55c-.432-3.077-.678-3.955-2.309-6.262-2.086.333-22.68 10.472-26.441 14.75-4.928-2.677-8.896-6.892-14.26-8.868l-12.146-22.12c3.743-9.026-3.466-17.734-.784-26.731 2.176-7.303 4.877-14.43 7.187-21.687 1.596-5.01 2.377-5.836 4.26-7.831-1.61-6.899 6.31-22.36-3.584-20.91-5.161-5-4.656-12.87-9.205-18.18 3.762-3.486 9.013-2.307 13.274-4.223.25-8.568-8.981-8.18-12.621-13.088.78-.496 1.985-.943 2.905-1.043.45-.81.778-2.051.839-2.98l1.526.355c2.29-6.807.973-9.754-.188-12.353a28.87 28.87 0 0 1 1.947-2.485c-.45-4.153-6.686-5.232-5.455-10.28 5.318 4.76 5.318 4.76 5.538 4.867a124.55 124.55 0 0 1-1.167-3.43c-7.856-3.788-7.856-3.788-8.175-3.777.14.937.135 2.223-.006 3.158-3.645-.125-13.641-6.458-11.662-13.393-6.299-9.012-6.299-9.012-8.94-9.865l.188-1.678c-.827-.633-1.858-1.594-2.474-2.433.051-.09.112-.197.17-.295a158.23 158.23 0 0 0-44.376-9.477c.055.815-.01 1.644.287 2.431.28.753 1.078 1.074 1.46 1.744.131-.532-.363-.971-.22-1.503.782 1.01.991 2.426 2.214 3.129 1.54-.454 1.713 1.495 2.603 2.201-.8-.194-1.33-.834-2.016-1.212l-.14.21c2.62 2.716 2.62 2.716 2.631 2.958.191.156.191.156 1.308.15-1.142-.845-1.142-.845-1.182-1.21.638-.253.721-.286 1.921.753-.986 1.313-.986 1.313-.565 3.1a.803.803 0 0 0-.529.026c.037.894.963 1.61.514 2.598.388.203 2.359 1.326 3.265 3.271-.855-.064-1.717.15-2.569-.058.445.53.445.53 2.21.48-1.126 2.542-2.163 3.447-7.335 4.972-.764.224-1.907.366-2.497.898-1.35 1.22-1.878 3.06-3.226 4.278-.23.206-.514.51-.764.69-.605.437-1.22.515-2.072.623-.877.114-2.698.35-3.338 1.566-.414.793-.162 2.095-.436 2.946-.849 2.617-2.168 5.045-3.005 7.664-.16.512-.345 1.203-.495 1.717-9.967-2.47-12.345-6.408-13.085-12.37-.593-.42-1.344-1.165-1.561-1.861-.71-2.294.512-7.756 3.671-6.642.156-.205.186-2.382.183-2.401-.388-.276-.388-.276-1.192-.501l-.212.128c.103.538.308.575.915.545-.183.285-.458.714-1.112.933-1.714.58-3.11-.505-2.188-2.408.668.38.668.38.87.295-.24-.73-.24-.73-.15-1.087.524-.044.524-.044 2.67.459-.722-1.413-1.164-1.749-3.554-1.567.14-.754.177-.953.187-1.95.011-1.078-.153-2.159.001-3.24.702-4.975-7.606-1.6-8.648-6.23 1.268-.784 1.268-.784 1.337-.772-.197-.492-.248-.575-.941-1.064 2.206-1.204 4.87-.884 7.067-2.12l-.016-.262c-.338-.123-.693-.065-1.04-.114l-.104-.23c.514-.518.819-.564 1.021-.594.022.07.05.164.07.235.17-.126 1.01-.72 2.203-1.283-.294.027-.59.05-.884.078-2.257.753-4.633 1.142-6.837 2.057-.622.257-.68 1.07-1.301 1.326-.204.083-.472.194-.675.274-.523.207-1.495.452-1.91.558-1.652.416-1.802.483-2.784.905.009.06.02.141.03.2.365-.049.365-.049.51.039-.793 1.132-2.68 1.223-3.454 1.21-.038-.055-.087-.131-.124-.186.16-.242.16-.242.421-.484-2.126.096-4.142-.726-6.254-.742-.871 1.162-.016 1.332 2.231 1.28 1.11-.026 2.966-.069 3.163.709.005.02.094 1.954-2.763 2.005a6.187 6.187 0 0 1-1.32-.134c-1.33-.323-2.446-1.19-3.78-1.505-.721-.172-1.454.152-2.175-.045-.07-.02-.137-.096-.199-.137.244-1.776 2.49-1.37 3.05-2.798-.123-.076-.21-.131-.278-.176-.307.08-.61.166-.915.249-.854.817-1.582 1.791-2.772 2.193-.613.205-1.223-.342-1.838-.002.512-.716.691-.965.943-1.165a158.377 158.377 0 0 0-7.374 2.357c6.136-.96 6.352-.798 8.21.78-9.536 4.063-10.106 4.305-8.45 8.54-.282.455-.655 1.069-.933 1.525.505.139 1.176.323 1.682.46 1.053-.785 2.335-2.009 3.146-3.04-.395-.36-.922-.843-1.314-1.203 2.441-9.366 15.354-3.898 15.484-3.84l-.559 1.93c4.436 5.736 4.436 5.736 4.739 6.985l-1.145 1.348c1.322 2.236 3.694 3.605 4.902 5.937-3.278 2.556-3.278 2.556-5.202 2.612-.54-1.069-1.67-2.307-2.664-2.977-.005.778-.005.778 2.059 6.393-.826.686-1.933 1.591-2.772 2.263-.785-.763-2.04-1.578-3.043-2.017l.88 1.563-.532 1.803c-1.795-.726-3.449-1.8-5.363-2.254-.54-2.667-.54-2.667-6.992-6.101 2.122-2.05 3.247-6.758 3.257-6.804-.477-.206-1.115-.48-1.593-.683-1.523 2.279-4.518 2.337-6.32 4.193v-1.712c-.55 2.319.484 4.571.287 6.877-1.114-.174-2.564-.716-3.532-1.293-.945.446-2.312.835-3.351.95a510.91 510.91 0 0 0-.81-1.656c1.975-1.334 1.975-1.334 4.781-3.718l.824-.7c-21.402 9.861-21.402 9.861-22.665 11.116.007 2.082-.719 4.122-.364 6.224 3.799 2.28 5.317 6.843 9.114 9.127a54.997 54.997 0 0 0-2.148 3.34c.4.458.933 1.066 1.331 1.524-.219 1.067-.99 2.443-1.828 3.137l1.157 1.72c3.326-2.718 3.326-2.718 4.96-8.27.11-.009 10.259-1.815 7.405-9.963 1.374-.993 1.374-.993 6.437-8.405 6.325.976 6.325.976 9.617 6.102-1.626 3.153-1.1 3.733.308 5.281 2.425-.295 3.332-.408 7.456-4.64 3.596 15.236 3.596 15.236 10.699 19.702a501.367 501.367 0 0 0-.607 3.86c-3.91 2.413-3.91 2.413-24.045 4.362-.388.491-.903 1.144-1.291 1.633l-.002-.002h-.016l-.738-.046c-1.152.23-2.584 1.198-3.274 2.15 4.809-2.12 5.84-1.946 8.896-1.43.323.455.754 1.063 1.076 1.52-.897.831-2.264 1.774-3.38 2.273.52.032 1.212.072 1.73.103-.49 1.16-.92 2.816-1.035 4.073 3.07-5.066 8.793-9.398 11.912-3.173 3.095-2.446 4.697-6.101 7.276-8.967a317617264400476700 317617264400476700 0 0 1 .726 3.106c6.836 3.13 6.836 3.13 5.865 5.831.462.249 1.079.579 1.541.826-.38 1.186-1.245 2.693-2.143 3.557l-1.706-.612-.467-1.98c-.907.724-2.317 1.458-3.428 1.801l.063-.612-.447-1.66c-1.71-.34-1.71-.34-6.23-.705.541 4.33 1.14 17.808-13.849 9.488-1.14.585-2.867 1-4.149 1.019.244-1.172.935-2.687 1.69-3.618l.564-.27c-10.861 1.11-12.427 4.447-13.806 7.39l1.241 1.386-1.626.945c-.971-.332-2.358-.532-3.383-.504l-.928 1.448c-1.08.045-2.523.092-3.605.12-3.121 5.776-3.199 5.915-14.176 18.945-.501-.206-.992-.426-1.479-.67-.4-.197-.75.398-.35.599.45.223.9.434 1.36.628l-.307.364c-.678-.119-1.351-.238-2.024-.36-9.961 10.323-9.961 10.323-9.347 14.993.508 3.857 2.05 15.592-7.437 13.357a86.233 86.233 0 0 1 3.106-2.386c-.024-.09-.024-.09-1.324-15.92-4.555.445-9.083-2.603-13.653-.108-1.927-1.348-4.564-3.196-7.355-3.644-11.542-1.86-19.557 25.599-10.46 35.832 6.148-1.12 6.148-1.12 7.282-1.52 1.346-8.77 8.178-6.045 11.052-4.464-3.005 5.475-4.004 11.793-7.215 17.182 12.287 4.33 12.287 4.33 13.92 6.312-.058.595-.111 1.193-.164 1.79-4.943 6.789-3.594 16.745 2.725 20.1 1.334-.477 1.334-.477 11.103 3.113.77-.892 1.994-1.923 3.012-2.521.769-6.23 12.97-7.903 13.09-7.911.216 1.218.625 2.822 1.06 3.978.722-.907 1.385-2.356 1.712-3.466 1.548 2.396 4.679 3.543 5.287 6.686 4.416.123 4.416.123 9.988 2.16.797-.817 1.638-2.215 1.82-3.34 2 2.015 5.198 2.102 7.046 4.366.174-.609.408-1.42.58-2.024.496.24 1.16.558 1.656.799-.312.538-.724 1.256-1.036 1.795 5.178 4.69 9.078 10.66 14.815 14.798 4.51-1.618 4.51-1.618 16.817 5.965 1.254 6.471 7.692 9.64 9.881 15.514 13.486 2.195 23.954 13.14 38.184 13.169 1.316 3.888 2.264 6.7.166 10.996-4.156 8.506-12.615 14.786-13.02 25.228-.487.015-.975.032-1.568 1.621-1.586 2.898-3.854 5.336-5.5 8.19-19.375 5.188-19.375 5.188-18.684 10.906-6.048 7.32-6.889 8.324-13.437 11.283a159.766 159.766 0 0 0 25.379 2.03c62.769 0 117.167-36.496 143.109-89.38l.65-28.276c0-.771-.504-1.723-.725-2.465-2.121-.028-2.121-.028-6.287 2.16z"/><path d="M179.978 454.807c-16.11-13-16.11-13-16.176-13.203-3.028-9.433-11.77-14.735-16.55-22.904-.014-.028-1.577-2.893-.183-7.412l1.927-.986c-.736-.93-1.92-2.024-2.912-2.675h-.003c0-.002-.002-.002-.002-.002h-.008l-.002-.001h-.002c-.145-3.43.909-6.715 1.212-10.09l1.742-.344c5.211-8.762 5.211-8.762 2.052-22.676-.68-.813-1.469-1.998-1.97-2.93-1.028.31-2.291 1.1-3.064 1.846.269.48.625 1.122.892 1.602-.33.433-.77 1.005-1.102 1.436a15.981 15.981 0 0 0-3.224-1.626c.053-.512.12-1.197.172-1.71-4.347-1.723-6.05-6.571-10.148-8.585.048-1.404.107-2.806.18-4.205-.103-.157-13.707-18.285-19.692-22.717-.556.21-1.293.494-1.847.706-4.032-3.239-14.054-11.318-15.559-32.515a159.622 159.622 0 0 0-2.539 28.403c0 64.537 38.578 120.233 93.883 145.24-.402-9.042.425-18.599-7.077-24.652zM178.282 258.737c.055-.095.116-.224.164-.32-3.883-1.187-6.285-.971-8.294.746.421-.043.95.1 1.928.38 1.956.558 4.91 1.403 6.202-.806zM165.167 261.012c-1.59.45-2.364 1.641-2.737 2.213 3.345-.252 5.761-.434 7.946-2.133.07-.053.16-.128.229-.182-1.2.008-2.395-.161-3.595-.14-.662.015-1.197.06-1.843.242zM155.67 244.79c1.862.268 3.515-.707 5.3-.9-.756.698-.786.727-.859 1.318-.086.693.484 1.229.458 1.905 3.036-.55 4.422-.804 4.342 1.03.161-.147.388-.324.532-.487.345-.399.481-.737.536-1.337.106-1.165.199-1.34.648-2.166-2.427-.188-1.563-2.003-1.097-2.977-4.177-.786-6.156-.01-11.19 2.595.456.595.766.834 1.33 1.02z"/></g><g fill="#636363"><path d="M78.613 195.626a417.283 417.283 0 0 0-37.032 27.772c1.898 2.373 3.082 5.345 3.082 8.62 0 7.666-6.214 13.88-13.882 13.88a13.833 13.833 0 0 1-9.797-4.051 421.975 421.975 0 0 0-20.8 21.387c1.709 31.546 14.594 62.601 38.692 86.7l51.374 51.373c-8.544-20.6-13.285-43.178-13.285-66.868 0-42.264 15.014-81.02 39.995-111.232a473.562 473.562 0 0 0-9.132-19.177 24.835 24.835 0 0 1-9.158 1.758c-8.236 0-15.516-4.007-20.057-10.162zM118.354 165.58c14.059-7.128 28.584-13.458 43.488-19-.153-.91-.25-1.838-.25-2.791 0-9.309 7.546-16.855 16.854-16.855 2.765 0 5.366.678 7.668 1.858a385.85 385.85 0 0 1 29.556-43.35c-6.138-5.491-10.023-13.447-10.023-22.331 0-2.425.32-4.77.864-7.03a460.31 460.31 0 0 0-50.301-11.334l-86.655 86.657c6.532 8.705 12.73 17.672 18.655 26.83a24.805 24.805 0 0 1 10.458-2.323c8.013.002 15.125 3.796 19.686 9.669zM30.781 218.138c2.231 0 4.31.576 6.178 1.512a423.74 423.74 0 0 1 38.738-29.077 24.845 24.845 0 0 1-1.967-9.721c0-7.946 3.728-15.007 9.517-19.574-5.682-8.768-11.617-17.357-17.858-25.707l-26.513 26.511C13.255 187.704.313 221.186 0 254.764c5.743-6.168 11.708-12.12 17.808-17.934-.559-1.505-.907-3.113-.907-4.812-.001-7.664 6.214-13.88 13.88-13.88zM448.709 212.748a21.852 21.852 0 0 1 10.498-2.672c12.12 0 21.944 9.824 21.944 21.944 0 6.44-2.791 12.212-7.209 16.227 11.066 17.2 21.079 35.142 29.855 53.778 17.367-47.12 7.164-102.1-30.677-139.941l-3.361-3.361c-26.999-11.417-55.458-20.023-84.99-25.537a27.026 27.026 0 0 1-4.317 8.948 472.012 472.012 0 0 1 68.257 70.614zM331.825 120.93a26.866 26.866 0 0 1 2.052-6.316 462.043 462.043 0 0 0-71.249-38.504c-4.846 10.043-15.094 16.99-26.992 16.99-5.58 0-10.788-1.554-15.262-4.209a380.164 380.164 0 0 0-29.565 43.466 16.852 16.852 0 0 1 2.702 3.898c36.546-10.374 75.063-16.013 114.889-16.013 7.861-.001 15.666.25 23.425.688zM235.634 33.127c7.988 0 15.226 3.142 20.6 8.234a388.321 388.321 0 0 1 42.488-34.326c-46.37-15.712-99.688-5.11-136.65 31.852l-.807.807a464.586 464.586 0 0 1 47.16 10.873c4.756-10.288 15.135-17.44 27.21-17.44z"/><path d="M437.266 232.02c0-6.216 2.595-11.815 6.747-15.808-20.006-25.546-42.599-48.973-67.45-69.81-4.803 4.26-11.103 6.867-18.028 6.867-14.811 0-26.833-11.84-27.178-26.569a414.376 414.376 0 0 0-136.184 15.096c.077.655.128 1.316.128 1.991 0 9.308-7.546 16.855-16.855 16.855-.847 0-1.674-.083-2.488-.204a380.628 380.628 0 0 0-9.436 21.476c25.188-14.085 54.202-22.147 85.112-22.147 96.469 0 174.67 78.203 174.67 174.67 0 30.278-7.71 58.752-21.263 83.576l68.081-68.081a132.414 132.414 0 0 0 27.677-40.485c-9.183-20.111-19.812-39.424-31.667-57.877a21.83 21.83 0 0 1-9.925 2.39c-12.117.003-21.941-9.82-21.941-21.94zM163.761 152.043a413.234 413.234 0 0 0-42.382 18.542 24.816 24.816 0 0 1 2.23 10.265c0 8.455-4.219 15.913-10.653 20.423a473.793 473.793 0 0 1 8.218 17.07 175.469 175.469 0 0 1 37.223-31.577 386.104 386.104 0 0 1 11.97-28.186 16.899 16.899 0 0 1-6.606-6.537zM264.622 70.67a467.454 467.454 0 0 1 72.235 38.994c4.967-6.558 12.816-10.813 21.678-10.813 15.029 0 27.21 12.182 27.21 27.21 0 .457-.047.903-.069 1.353 25.372 4.724 49.964 11.694 73.531 20.754L349.925 38.885c-13.128-13.127-28.323-22.92-44.534-29.402a382.181 382.181 0 0 0-45.35 36.25c3.5 4.907 5.58 10.895 5.58 17.38 0 2.615-.369 5.14-.999 7.557z"/></g></svg>