<svg xmlns="http://www.w3.org/2000/svg" width="504.239" height="512" viewBox="0 0 504.239 512"><path fill="#eee" d="M131.861 378.643v63.764L251.898 512l120.477-69.699v-63.73l-106.587 61.668v-37.502l-13.874 8.028-13.708-7.948v37.487z"/><linearGradient id="a" gradientUnits="userSpaceOnUse" x1="74.875" y1="239.518" x2="74.875" y2="412.511" gradientTransform="matrix(1 0 0 -1 177.12 413.02)"><stop offset="0" stop-color="#007ebe"/><stop offset="1" stop-color="#007ebe"/></linearGradient><path fill="url(#a)" d="M310.105 33.445L251.937 0l-58.052 33.445v67.099l44.321 25.701v54.544l13.708-7.896 13.874 7.975v-54.68l44.317-25.644z"/><linearGradient id="b" gradientUnits="userSpaceOnUse" x1="167.913" y1="70.079" x2="326.605" y2="-24.424" gradientTransform="matrix(1 0 0 -1 177.12 413.02)"><stop offset="0" stop-color="#007ebe"/><stop offset="1" stop-color="#007ebe"/></linearGradient><path fill="url(#b)" d="M388.013 385.319v51.372l58.046 33.662 58.18-33.662v-67.099l-58.18-33.445-44.074 25.391-47.401-27.223v16.018l-13.701 7.922z"/><path fill="#eee" d="M60.986 180.663v139.286l55.16 31.712V229.199l32.429 18.623v-16.424l13.369-7.702-32.631-18.738 107.077-61.691-55.072-31.932zM355.475 246.785l32.557-18.996v123.747l55.162-31.781V180.644l-120.535-69.296-55.162 31.918 106.117 61.005-32.416 18.918 14.277 8.209z"/><linearGradient id="c" gradientUnits="userSpaceOnUse" x1="-18.268" y1="71.98" x2="-176.964" y2="-26.092" gradientTransform="matrix(1 0 0 -1 177.12 413.02)"><stop offset="0" stop-color="#007ebe"/><stop offset="1" stop-color="#007ebe"/></linearGradient><path fill="url(#c)" d="M0 436.847l58.049 33.657 58.175-33.657V385.78l47.196-27.358-13.952-8.089v-15.702l-46.961 27.226-44.458-25.558L0 369.743z"/><path d="M251.914 184.903l-92.055 53.035v106.409l92.055 53.375 92.252-53.375V237.938zm49.191 134.691l-49.191 28.455-49.086-28.455v-56.742l49.086-28.286 49.191 28.286z" fill="#007ebe"/><path fill="#eee" d="M290.107 313.266l-38.193 22.1-38.114-22.1v-44.054l38.114-21.961 38.193 21.961z"/></svg>